<svg xmlns="http://www.w3.org/2000/svg" xmlns:xlink="http://www.w3.org/1999/xlink" viewBox="0 0 278.87 258.41"><defs><style>.cls-1{fill:none;}.cls-2{fill:#dcedc1;}.cls-3{clip-path:url(#clip-path);}.cls-4{fill:#133746;}.cls-5{fill:#133847;}.cls-6{fill:#133947;}.cls-7{fill:#133a47;}.cls-8{fill:#133b48;}.cls-9{fill:#133c48;}.cls-10{fill:#133d49;}.cls-11{fill:#123e49;}.cls-12{fill:#123f49;}.cls-13{fill:#12404a;}.cls-14{fill:#12414a;}.cls-15{fill:#12434b;}.cls-16{fill:#12444b;}.cls-17{fill:#12454b;}.cls-18{fill:#12464c;}.cls-19{fill:#12474c;}.cls-20{fill:#11484c;}.cls-21{fill:#11494d;}.cls-22{fill:#114a4d;}.cls-23{fill:#114b4e;}.cls-24{fill:#114c4e;}.cls-25{fill:#114d4e;}.cls-26{fill:#114e4f;}.cls-27{fill:#114f4f;}.cls-28{fill:#115050;}.cls-29{fill:#115150;}.cls-30{fill:#105250;}.cls-31{fill:#105351;}.cls-32{fill:#105451;}.cls-33{fill:#105552;}.cls-34{fill:#105652;}</style><clipPath id="clip-path"><polygon class="cls-1" points="39.52 93.85 139.44 22.94 239.35 93.85 39.52 93.85"/></clipPath></defs><g id="Layer_2" data-name="Layer 2"><g id="Layer_1-2" data-name="Layer 1"><polygon class="cls-2" points="139.44 0 7.2 93.85 139.44 93.85 271.68 93.85 139.44 0"/><rect class="cls-2" y="93.85" width="278.87" height="17.64"/><rect class="cls-2" y="240.77" width="278.87" height="17.64"/><rect class="cls-2" x="20.92" y="113.56" width="24.45" height="11.48"/><rect class="cls-2" x="15.69" y="107.25" width="34.92" height="8.48" rx="0.46"/><rect class="cls-2" x="17.22" y="118.52" width="31.86" height="8.48" rx="0.46"/><rect class="cls-2" x="20.92" y="227.22" width="24.45" height="11.48" transform="translate(66.3 465.92) rotate(180)"/><rect class="cls-2" x="15.69" y="236.53" width="34.92" height="8.48" rx="0.46" transform="translate(66.3 481.54) rotate(180)"/><rect class="cls-2" x="17.22" y="225.25" width="31.86" height="8.48" rx="0.46" transform="translate(66.3 458.99) rotate(180)"/><rect class="cls-2" x="61.98" y="113.56" width="24.45" height="11.48"/><rect class="cls-2" x="56.75" y="107.25" width="34.92" height="8.48" rx="0.46"/><rect class="cls-2" x="58.28" y="118.52" width="31.86" height="8.48" rx="0.46"/><rect class="cls-2" x="61.98" y="227.22" width="24.45" height="11.48" transform="translate(148.42 465.92) rotate(180)"/><rect class="cls-2" x="56.75" y="236.53" width="34.92" height="8.48" rx="0.46" transform="translate(148.42 481.54) rotate(180)"/><rect class="cls-2" x="58.28" y="225.25" width="31.86" height="8.48" rx="0.46" transform="translate(148.42 458.99) rotate(180)"/><rect class="cls-2" x="193.12" y="113.56" width="24.45" height="11.48"/><rect class="cls-2" x="187.89" y="107.25" width="34.92" height="8.48" rx="0.46"/><rect class="cls-2" x="189.42" y="118.52" width="31.86" height="8.48" rx="0.46"/><rect class="cls-2" x="193.12" y="227.22" width="24.45" height="11.48" transform="translate(410.69 465.92) rotate(180)"/><rect class="cls-2" x="187.89" y="236.53" width="34.92" height="8.48" rx="0.46" transform="translate(410.69 481.54) rotate(180)"/><rect class="cls-2" x="189.42" y="225.25" width="31.86" height="8.48" rx="0.46" transform="translate(410.69 458.99) rotate(180)"/><rect class="cls-2" x="234.18" y="113.56" width="24.45" height="11.48"/><rect class="cls-2" x="228.94" y="107.25" width="34.92" height="8.48" rx="0.46"/><rect class="cls-2" x="230.48" y="118.52" width="31.86" height="8.48" rx="0.46"/><rect class="cls-2" x="234.18" y="227.22" width="24.45" height="11.48" transform="translate(492.81 465.92) rotate(180)"/><rect class="cls-2" x="228.94" y="236.53" width="34.92" height="8.48" rx="0.46" transform="translate(492.81 481.54) rotate(180)"/><rect class="cls-2" x="230.48" y="225.25" width="31.86" height="8.48" rx="0.46" transform="translate(492.81 458.99) rotate(180)"/><path class="cls-2" d="M132,225.65c-8.92-1.06-19.5-5-26.61-11.49l9.68-15c7.71,5.74,14.36,8.77,21.62,8.77,8.47,0,12.25-3.48,12.25-10.44C148.93,182,109,182.25,109,155c0-14.82,8.77-25.1,23-28V111.49h14.67v15.27c9.68,1.36,16.63,6.2,22.53,12.4L158,151.86c-5.44-5-10.13-7.56-16.48-7.56-7.26,0-11.19,2.87-11.19,9.68,0,14.36,39.92,13.15,39.92,42,0,14.52-8,25.71-23.59,29v15.73H132Z"/><rect class="cls-2" x="237.29" y="111.61" width="18.23" height="129.03"/><rect class="cls-2" x="196.23" y="111.61" width="18.23" height="129.03"/><rect class="cls-2" x="65.09" y="111.61" width="18.23" height="129.03"/><rect class="cls-2" x="24.03" y="111.61" width="18.23" height="129.03"/><g class="cls-3"><polygon class="cls-4" points="39.52 88.26 42.97 93.85 39.52 93.85 39.52 88.26"/><polygon class="cls-5" points="39.52 82.2 40.14 81.83 47.55 93.85 42.97 93.85 39.52 88.26 39.52 82.2"/><polygon class="cls-6" points="40.14 81.83 43.46 79.78 52.14 93.85 47.55 93.85 40.14 81.83"/><polygon class="cls-7" points="43.46 79.78 46.79 77.73 56.73 93.85 52.14 93.85 43.46 79.78"/><polygon class="cls-8" points="46.79 77.73 50.11 75.68 61.31 93.85 56.73 93.85 46.79 77.73"/><polygon class="cls-9" points="50.11 75.68 53.43 73.63 65.9 93.85 61.31 93.85 50.11 75.68"/><polygon class="cls-10" points="53.43 73.63 56.76 71.58 70.49 93.85 65.9 93.85 53.43 73.63"/><polygon class="cls-11" points="56.76 71.58 60.08 69.53 75.08 93.85 70.49 93.85 56.76 71.58"/><polygon class="cls-12" points="60.08 69.53 63.4 67.48 79.66 93.85 75.08 93.85 60.08 69.53"/><polygon class="cls-13" points="63.4 67.48 66.72 65.43 84.25 93.85 79.66 93.85 63.4 67.48"/><polygon class="cls-14" points="66.72 65.43 70.05 63.38 88.83 93.85 84.25 93.85 66.72 65.43"/><polygon class="cls-15" points="70.05 63.38 73.37 61.33 93.42 93.85 88.83 93.85 70.05 63.38"/><polygon class="cls-16" points="73.37 61.33 76.69 59.28 98.01 93.85 93.42 93.85 73.37 61.33"/><polygon class="cls-17" points="76.69 59.28 80.02 57.23 102.6 93.85 98.01 93.85 76.69 59.28"/><polygon class="cls-18" points="80.02 57.23 83.34 55.19 107.18 93.85 102.6 93.85 80.02 57.23"/><polygon class="cls-19" points="83.34 55.19 86.66 53.14 111.77 93.85 107.18 93.85 83.34 55.19"/><polygon class="cls-20" points="86.66 53.14 89.99 51.09 116.36 93.85 111.77 93.85 86.66 53.14"/><polygon class="cls-21" points="89.99 51.09 93.31 49.04 120.94 93.85 116.36 93.85 89.99 51.09"/><polygon class="cls-22" points="93.31 49.04 96.63 46.99 125.53 93.85 120.94 93.85 93.31 49.04"/><polygon class="cls-23" points="96.63 46.99 99.96 44.94 130.12 93.85 125.53 93.85 96.63 46.99"/><polygon class="cls-24" points="99.96 44.94 103.28 42.89 134.7 93.85 130.12 93.85 99.96 44.94"/><polygon class="cls-25" points="103.28 42.89 106.6 40.84 139.29 93.85 134.7 93.85 103.28 42.89"/><polygon class="cls-26" points="106.6 40.84 109.92 38.79 143.88 93.85 139.29 93.85 106.6 40.84"/><polygon class="cls-27" points="109.92 38.79 113.25 36.74 148.46 93.85 143.88 93.85 109.92 38.79"/><polygon class="cls-28" points="113.25 36.74 116.57 34.69 153.05 93.85 148.46 93.85 113.25 36.74"/><polygon class="cls-29" points="116.57 34.69 119.89 32.64 157.64 93.85 153.05 93.85 116.57 34.69"/><polygon class="cls-30" points="119.89 32.64 123.22 30.59 162.22 93.85 157.64 93.85 119.89 32.64"/><polygon class="cls-31" points="123.22 30.59 126.54 28.55 166.81 93.85 162.22 93.85 123.22 30.59"/><polygon class="cls-32" points="126.54 28.55 129.86 26.5 171.4 93.85 166.81 93.85 126.54 28.55"/><polygon class="cls-33" points="129.86 26.5 133.19 24.45 175.98 93.85 171.4 93.85 129.86 26.5"/><polygon class="cls-34" points="133.19 24.45 135.63 22.94 136.85 22.94 180.57 93.85 175.98 93.85 133.19 24.45"/><polygon class="cls-34" points="180.57 93.85 136.85 22.94 239.35 22.94 239.35 93.85 180.57 93.85"/></g></g></g></svg>