<svg xmlns="http://www.w3.org/2000/svg" viewBox="0 0 278.87 258.41"><defs><clipPath id="clip-path"><path fill="none" d="m39.52 93.85 99.92-70.91 99.91 70.91H39.52z"/></clipPath>
    </defs><g id="Layer_2" data-name="Layer 2"><g id="Layer_1-2" data-name="Layer 1"><path class="cls-2" d="M139.44 0 7.2 93.85h264.48L139.44 0zM0 93.85h278.87v17.64H0zM0 240.77h278.87v17.64H0zM20.92 113.56h24.45v11.48H20.92z"/><rect class="cls-2" x="15.69" y="107.25" width="34.92" height="8.48" rx=".46"/><rect class="cls-2" x="17.22" y="118.52" width="31.86" height="8.48" rx=".46"/><path class="cls-2" transform="rotate(180 33.15 232.96)" d="M20.92 227.22h24.45v11.48H20.92z"/><rect class="cls-2" x="15.69" y="236.53" width="34.92" height="8.48" rx=".46" transform="rotate(180 33.15 240.77)"/><rect class="cls-2" x="17.22" y="225.25" width="31.86" height="8.48" rx=".46" transform="rotate(180 33.15 229.495)"/><path class="cls-2" d="M61.98 113.56h24.45v11.48H61.98z"/><rect class="cls-2" x="56.75" y="107.25" width="34.92" height="8.48" rx=".46"/><rect class="cls-2" x="58.28" y="118.52" width="31.86" height="8.48" rx=".46"/><path class="cls-2" transform="rotate(180 74.21 232.96)" d="M61.98 227.22h24.45v11.48H61.98z"/><rect class="cls-2" x="56.75" y="236.53" width="34.92" height="8.48" rx=".46" transform="rotate(180 74.21 240.77)"/><rect class="cls-2" x="58.28" y="225.25" width="31.86" height="8.48" rx=".46" transform="rotate(180 74.21 229.495)"/><path class="cls-2" d="M193.12 113.56h24.45v11.48h-24.45z"/><rect class="cls-2" x="187.89" y="107.25" width="34.92" height="8.48" rx=".46"/><rect class="cls-2" x="189.42" y="118.52" width="31.86" height="8.48" rx=".46"/><path class="cls-2" transform="rotate(180 205.345 232.96)" d="M193.12 227.22h24.45v11.48h-24.45z"/><rect class="cls-2" x="187.89" y="236.53" width="34.92" height="8.48" rx=".46" transform="rotate(180 205.345 240.77)"/><rect class="cls-2" x="189.42" y="225.25" width="31.86" height="8.48" rx=".46" transform="rotate(180 205.345 229.495)"/><path class="cls-2" d="M234.18 113.56h24.45v11.48h-24.45z"/><rect class="cls-2" x="228.94" y="107.25" width="34.92" height="8.48" rx=".46"/><rect class="cls-2" x="230.48" y="118.52" width="31.86" height="8.48" rx=".46"/><path class="cls-2" transform="rotate(180 246.405 232.96)" d="M234.18 227.22h24.45v11.48h-24.45z"/><rect class="cls-2" x="228.94" y="236.53" width="34.92" height="8.48" rx=".46" transform="rotate(180 246.405 240.77)"/><rect class="cls-2" x="230.48" y="225.25" width="31.86" height="8.48" rx=".46" transform="rotate(180 246.405 229.495)"/><path class="cls-2" d="M132 225.65c-8.92-1.06-19.5-5-26.61-11.49l9.68-15c7.71 5.74 14.36 8.77 21.62 8.77 8.47 0 12.25-3.48 12.25-10.44C148.93 182 109 182.25 109 155c0-14.82 8.77-25.1 23-28v-15.51h14.67v15.27c9.68 1.36 16.63 6.2 22.53 12.4l-11.2 12.7c-5.44-5-10.13-7.56-16.48-7.56-7.26 0-11.19 2.87-11.19 9.68 0 14.36 39.92 13.15 39.92 42 0 14.52-8 25.71-23.59 29v15.73H132ZM237.29 111.61h18.23v129.03h-18.23zM196.23 111.61h18.23v129.03h-18.23zM65.09 111.61h18.23v129.03H65.09zM24.03 111.61h18.23v129.03H24.03z"/><g clip-path="url(#clip-path)"><path fill="#133746" d="m39.52 88.26 3.45 5.59h-3.45v-5.59z"/><path fill="#133847" d="m39.52 82.2.62-.37 7.41 12.02h-4.58l-3.45-5.59V82.2z"/><path fill="#133947" d="m40.14 81.83 3.32-2.05 8.68 14.07h-4.59l-7.41-12.02z"/><path fill="#133a47" d="m43.46 79.78 3.33-2.05 9.94 16.12h-4.59l-8.68-14.07z"/><path fill="#133b48" d="m46.79 77.73 3.32-2.05 11.2 18.17h-4.58l-9.94-16.12z"/><path fill="#133c48" d="m50.11 75.68 3.32-2.05L65.9 93.85h-4.59l-11.2-18.17z"/><path fill="#133d49" d="m53.43 73.63 3.33-2.05 13.73 22.27H65.9L53.43 73.63z"/><path fill="#123e49" d="m56.76 71.58 3.32-2.05 15 24.32h-4.59L56.76 71.58z"/><path fill="#123f49" d="m60.08 69.53 3.32-2.05 16.26 26.37h-4.58l-15-24.32z"/><path fill="#12404a" d="m63.4 67.48 3.32-2.05 17.53 28.42h-4.59L63.4 67.48z"/><path fill="#12414a" d="m66.72 65.43 3.33-2.05 18.78 30.47h-4.58L66.72 65.43z"/><path fill="#12434b" d="m70.05 63.38 3.32-2.05 20.05 32.52h-4.59L70.05 63.38z"/><path fill="#12444b" d="m73.37 61.33 3.32-2.05 21.32 34.57h-4.59L73.37 61.33z"/><path fill="#12454b" d="m76.69 59.28 3.33-2.05 22.58 36.62h-4.59L76.69 59.28z"/><path fill="#12464c" d="m80.02 57.23 3.32-2.04 23.84 38.66h-4.58L80.02 57.23z"/><path fill="#12474c" d="m83.34 55.19 3.32-2.05 25.11 40.71h-4.59L83.34 55.19z"/><path fill="#11484c" d="m86.66 53.14 3.33-2.05 26.37 42.76h-4.59L86.66 53.14z"/><path fill="#11494d" d="m89.99 51.09 3.32-2.05 27.63 44.81h-4.58L89.99 51.09z"/><path fill="#114a4d" d="m93.31 49.04 3.32-2.05 28.9 46.86h-4.59L93.31 49.04z"/><path fill="#114b4e" d="m96.63 46.99 3.33-2.05 30.16 48.91h-4.59l-28.9-46.86z"/><path fill="#114c4e" d="m99.96 44.94 3.32-2.05 31.42 50.96h-4.58L99.96 44.94z"/><path fill="#114d4e" d="m103.28 42.89 3.32-2.05 32.69 53.01h-4.59l-31.42-50.96z"/><path fill="#114e4f" d="m106.6 40.84 3.32-2.05 33.96 55.06h-4.59L106.6 40.84z"/><path fill="#114f4f" d="m109.92 38.79 3.33-2.05 35.21 57.11h-4.58l-33.96-55.06z"/><path fill="#115050" d="m113.25 36.74 3.32-2.05 36.48 59.16h-4.59l-35.21-57.11z"/><path fill="#115150" d="m116.57 34.69 3.32-2.05 37.75 61.21h-4.59l-36.48-59.16z"/><path fill="#105250" d="m119.89 32.64 3.33-2.05 39 63.26h-4.58l-37.75-61.21z"/><path fill="#105351" d="m123.22 30.59 3.32-2.04 40.27 65.3h-4.59l-39-63.26z"/><path fill="#105451" d="m126.54 28.55 3.32-2.05 41.54 67.35h-4.59l-40.27-65.3z"/><path fill="#105552" d="m129.86 26.5 3.33-2.05 42.79 69.4h-4.58L129.86 26.5z"/><path class="cls-34" d="m133.19 24.45 2.44-1.51h1.22l43.72 70.91h-4.59l-42.79-69.4z"/><path class="cls-34" d="m180.57 93.85-43.72-70.91h102.5v70.91h-58.78z"/></g></g></g></svg>