<svg xmlns="http://www.w3.org/2000/svg" xmlns:xlink="http://www.w3.org/1999/xlink" viewBox="0 0 254.27 83.71">
    <defs><linearGradient id="linear-gradient" x1="12.8" y1="18.92" x2="77.54" y2="18.92" gradientUnits="userSpaceOnUse"><stop offset="0" stop-color="#142f43"/><stop offset="1" stop-color="#105652"/></linearGradient><linearGradient id="linear-gradient-2" x1="230.26" y1="69.41" x2="230.26" y2="5.91" gradientTransform="translate(192.61 267.92) rotate(-90)" xlink:href="#linear-gradient"/><linearGradient id="linear-gradient-3" x1="224.99" y1="76.49" x2="235.54" y2="76.49" xlink:href="#linear-gradient"/></defs><g id="Layer_2" data-name="Layer 2"><g id="Layer_1-2" data-name="Layer 1"><polygon class="cls-1" points="45.17 0 2.33 30.4 45.17 30.4 88.01 30.4 45.17 0"/><polygon class="cls-2" points="12.8 30.4 45.17 7.43 77.54 30.4 12.8 30.4"/><rect class="cls-1" y="30.4" width="90.34" height="5.71"/><rect class="cls-1" y="78" width="90.34" height="5.71"/><rect class="cls-1" x="6.78" y="36.79" width="7.92" height="3.72"/><path class="cls-1" d="M15,37.49H6.46a1.37,1.37,0,0,1-1.38-1.37h0a1.38,1.38,0,0,1,1.38-1.38H15a1.38,1.38,0,0,1,1.38,1.38h0A1.37,1.37,0,0,1,15,37.49Z"/><path class="cls-1" d="M14.52,41.14H7a1.37,1.37,0,0,1-1.37-1.37h0A1.37,1.37,0,0,1,7,38.4h7.57a1.37,1.37,0,0,1,1.38,1.37h0A1.37,1.37,0,0,1,14.52,41.14Z"/><rect class="cls-1" x="6.78" y="73.61" width="7.92" height="3.72" transform="translate(21.48 150.94) rotate(180)"/><path class="cls-1" d="M6.46,76.62H15A1.38,1.38,0,0,1,16.4,78h0A1.37,1.37,0,0,1,15,79.37H6.46A1.37,1.37,0,0,1,5.08,78h0A1.38,1.38,0,0,1,6.46,76.62Z"/><path class="cls-1" d="M7,73h7.57a1.38,1.38,0,0,1,1.38,1.37h0a1.38,1.38,0,0,1-1.38,1.38H7a1.37,1.37,0,0,1-1.37-1.38h0A1.37,1.37,0,0,1,7,73Z"/><rect class="cls-1" x="20.08" y="36.79" width="7.92" height="3.72"/><path class="cls-1" d="M28.32,37.49H19.76a1.37,1.37,0,0,1-1.38-1.37h0a1.38,1.38,0,0,1,1.38-1.38h8.56a1.38,1.38,0,0,1,1.38,1.38h0A1.37,1.37,0,0,1,28.32,37.49Z"/><path class="cls-1" d="M27.83,41.14H20.25a1.37,1.37,0,0,1-1.37-1.37h0a1.37,1.37,0,0,1,1.37-1.37h7.58a1.37,1.37,0,0,1,1.37,1.37h0A1.37,1.37,0,0,1,27.83,41.14Z"/><rect class="cls-1" x="20.08" y="73.61" width="7.92" height="3.72" transform="translate(48.08 150.94) rotate(180)"/><path class="cls-1" d="M19.76,76.62h8.56A1.38,1.38,0,0,1,29.7,78h0a1.37,1.37,0,0,1-1.38,1.37H19.76A1.37,1.37,0,0,1,18.38,78h0A1.38,1.38,0,0,1,19.76,76.62Z"/><path class="cls-1" d="M20.25,73h7.58a1.38,1.38,0,0,1,1.37,1.37h0a1.38,1.38,0,0,1-1.37,1.38H20.25a1.37,1.37,0,0,1-1.37-1.38h0A1.37,1.37,0,0,1,20.25,73Z"/><rect class="cls-1" x="62.56" y="36.79" width="7.92" height="3.72"/><path class="cls-1" d="M70.8,37.49H62.24a1.37,1.37,0,0,1-1.37-1.37h0a1.37,1.37,0,0,1,1.37-1.38H70.8a1.38,1.38,0,0,1,1.38,1.38h0A1.37,1.37,0,0,1,70.8,37.49Z"/><path class="cls-1" d="M70.31,41.14H62.74a1.37,1.37,0,0,1-1.38-1.37h0a1.37,1.37,0,0,1,1.38-1.37h7.57a1.37,1.37,0,0,1,1.37,1.37h0A1.37,1.37,0,0,1,70.31,41.14Z"/><rect class="cls-1" x="62.56" y="73.61" width="7.92" height="3.72" transform="translate(133.04 150.94) rotate(180)"/><path class="cls-1" d="M62.24,76.62H70.8A1.38,1.38,0,0,1,72.18,78h0a1.37,1.37,0,0,1-1.38,1.37H62.24A1.37,1.37,0,0,1,60.87,78h0A1.37,1.37,0,0,1,62.24,76.62Z"/><path class="cls-1" d="M62.74,73h7.57a1.37,1.37,0,0,1,1.37,1.37h0a1.37,1.37,0,0,1-1.37,1.38H62.74a1.38,1.38,0,0,1-1.38-1.38h0A1.38,1.38,0,0,1,62.74,73Z"/><rect class="cls-1" x="75.86" y="36.79" width="7.92" height="3.72"/><path class="cls-1" d="M84.11,37.49H75.54a1.37,1.37,0,0,1-1.37-1.37h0a1.37,1.37,0,0,1,1.37-1.38h8.57a1.38,1.38,0,0,1,1.37,1.38h0A1.37,1.37,0,0,1,84.11,37.49Z"/><path class="cls-1" d="M83.61,41.14H76a1.37,1.37,0,0,1-1.38-1.37h0A1.37,1.37,0,0,1,76,38.4h7.57A1.37,1.37,0,0,1,85,39.77h0A1.37,1.37,0,0,1,83.61,41.14Z"/><rect class="cls-1" x="75.86" y="73.61" width="7.92" height="3.72" transform="translate(159.65 150.94) rotate(180)"/><path class="cls-1" d="M75.54,76.62h8.57A1.38,1.38,0,0,1,85.48,78h0a1.37,1.37,0,0,1-1.37,1.37H75.54A1.37,1.37,0,0,1,74.17,78h0A1.37,1.37,0,0,1,75.54,76.62Z"/><path class="cls-1" d="M76,73h7.57A1.37,1.37,0,0,1,85,74.34h0a1.37,1.37,0,0,1-1.37,1.38H76a1.38,1.38,0,0,1-1.38-1.38h0A1.38,1.38,0,0,1,76,73Z"/><path class="cls-1" d="M42.76,73.1a16.23,16.23,0,0,1-8.62-3.72l3.13-4.85c2.5,1.86,4.66,2.84,7,2.84,2.74,0,4-1.13,4-3.38,0-5.05-12.94-5-12.94-13.77a8.76,8.76,0,0,1,7.45-9.06v-5h4.75v4.94a12.17,12.17,0,0,1,7.3,4l-3.63,4.11c-1.76-1.61-3.28-2.44-5.33-2.44-2.36,0-3.63.93-3.63,3.13,0,4.65,12.93,4.26,12.93,13.62a9,9,0,0,1-7.64,9.4V78H42.76Z"/><rect class="cls-1" x="76.87" y="36.16" width="5.91" height="41.8"/><rect class="cls-1" x="63.57" y="36.16" width="5.91" height="41.8"/><rect class="cls-1" x="21.09" y="36.16" width="5.91" height="41.8"/><rect class="cls-1" x="7.79" y="36.16" width="5.91" height="41.8"/><rect class="cls-1" x="206.26" width="48.02" height="83.71" rx="2"/><rect class="cls-3" x="198.51" y="19.56" width="63.5" height="36.2" transform="translate(267.92 -192.61) rotate(90)"/><path class="cls-4" d="M232.84,73.72h-5.15c-1.49,0-2.7.64-2.7,1.42v2.69c0,.79,1.21,1.42,2.7,1.42h5.15c1.49,0,2.7-.63,2.7-1.42V75.14C235.54,74.36,234.33,73.72,232.84,73.72Z"/><path class="cls-1" d="M144,60.39h5.48a15,15,0,0,0,13.9-9.46h-6.75a9.05,9.05,0,0,1-7.15,3.55H124.69a9.09,9.09,0,0,1,0-18.17h24.77a9,9,0,0,1,6.53,2.8h7a15,15,0,0,0-13.56-8.71H124.69a15,15,0,0,0,0,30H144Z"/><path class="cls-1" d="M170.93,42.07H146.16a15,15,0,0,0-13.9,9.46H139A9,9,0,0,1,146.16,48h24.77a9.09,9.09,0,0,1,0,18.18H146.16a9,9,0,0,1-6.54-2.81h-7a15,15,0,0,0,13.57,8.72h24.77a15,15,0,0,0,0-30Z"/></g></g></svg>